<svg width="67" height="133" viewBox="0 0 67 133" fill="none" xmlns="http://www.w3.org/2000/svg">
<g opacity="0.2" clip-path="url(#clip0_2193_193)">
<path d="M24.1642 25.8233C28.6235 25.6791 33.0828 25.668 37.5366 25.7734C38.4539 25.7956 38.4539 24.3644 37.5366 24.3422C33.0773 24.2368 28.618 24.2479 24.1642 24.3921C23.2469 24.4198 23.2469 25.8511 24.1642 25.8233Z" fill="#212121"/>
<path d="M48.5163 26.3559C52.1965 26.6776 55.965 27.0216 59.5292 28.0257C60.1923 28.2143 61.4577 28.4417 61.9108 29.0464C62.0323 29.2073 61.966 29.174 61.9992 29.0353C61.955 29.2128 61.6455 29.3404 61.5184 29.4236C59.9049 30.4499 57.5344 30.6773 55.6998 30.9825C52.4285 31.5261 49.1131 31.8257 45.8087 32.0476C37.2327 32.63 28.5959 32.6578 20.0144 32.1918C16.4834 31.9976 12.9414 31.7258 9.43802 31.2376C7.17246 30.9214 4.76874 30.6052 2.62474 29.7565C2.38714 29.6622 1.42565 29.296 1.42565 29.0519C1.42565 28.819 3.01155 28.2864 3.28231 28.1976C7.07299 26.9772 11.2063 26.6665 15.1461 26.3281C16.0524 26.2505 16.0634 24.8192 15.1461 24.8969C13.6431 25.0245 -1.74062 25.8733 0.165775 29.7176C0.850971 31.0934 3.23811 31.5095 4.54219 31.8146C7.85213 32.5912 11.2726 32.9518 14.6544 33.2514C24.6726 34.1334 34.8234 34.1722 44.8582 33.5398C48.7152 33.3013 52.5888 32.9573 56.4016 32.3027C58.3743 31.9644 60.894 31.6648 62.5683 30.4444C64.3034 29.174 62.8667 27.7372 61.3969 27.1381C57.4294 25.5238 52.7269 25.2908 48.5163 24.9191C47.6045 24.847 47.6101 26.2782 48.5163 26.3559Z" fill="#212121"/>
<path d="M0.127096 29.7121C2.77947 36.8073 6.25518 43.5363 10.5266 49.7883C11.0405 50.5428 12.2783 49.8271 11.7588 49.0671C7.55926 42.9206 4.11118 36.308 1.50301 29.3293C1.18252 28.475 -0.198924 28.8467 0.127096 29.7121Z" fill="#212121"/>
<path d="M61.9716 29.5623C59.2308 36.5133 55.8766 43.026 51.456 49.0616C50.9145 49.8049 52.1467 50.5206 52.6883 49.7828C57.1807 43.6473 60.557 37.007 63.3475 29.9395C63.6845 29.0908 62.3086 28.7191 61.9716 29.5623Z" fill="#212121"/>
<path d="M10.9687 50.5039C13.7979 51.9629 16.9586 52.3845 20.0862 52.7562C23.7277 53.1833 27.4023 53.3664 31.0714 53.3054C38.2107 53.1889 45.3113 52.1404 52.1909 50.2376C53.0751 49.9936 52.6993 48.6122 51.8097 48.8563C45.2174 50.6759 38.4428 51.7022 31.6074 51.863C28.2975 51.9407 24.982 51.8187 21.6887 51.4969C18.329 51.1696 14.7372 50.8423 11.687 49.2724C10.8747 48.8452 10.1508 50.0768 10.9687 50.5039Z" fill="#212121"/>
<path d="M10.9576 49.5609C9.48776 51.6245 10.4824 54.0598 11.8031 55.9127C13.6266 58.4756 14.9251 60.9664 14.461 64.2283C14.0355 67.2239 11.8528 69.2321 10.7918 71.9504C9.85247 74.3524 10.1011 76.9652 11.256 79.2397C11.6704 80.0607 12.9027 79.3396 12.4883 78.5185C11.0958 75.7781 11.5931 73.021 13.1679 70.4969C14.4499 68.4388 15.6324 66.5693 15.9142 64.1063C16.1684 61.9206 15.7595 59.6572 14.7317 57.7101C13.6045 55.5632 10.3387 52.8893 12.1954 50.2876C12.7259 49.5331 11.4881 48.8175 10.9576 49.5609Z" fill="#212121"/>
<path d="M51.4947 50.3264C53.274 52.8616 51.6826 55.774 50.1243 57.9652C48.6876 59.9845 47.0907 61.9871 46.7867 64.539C46.5049 66.9022 47.8256 68.5054 48.8036 70.5025C50.0967 73.1431 50.2348 76.1775 49.406 78.979C49.1407 79.861 50.5166 80.2438 50.7819 79.3617C51.5278 76.8598 51.5721 74.1804 50.7929 71.6785C49.9198 68.8771 47.4719 66.6858 48.45 63.5626C49.8425 59.1136 56.3242 54.7311 52.7325 49.6163C52.202 48.8619 50.9697 49.572 51.4947 50.3264Z" fill="#212121"/>
<path d="M11.5875 79.7556C14.3394 81.5142 17.4835 82.3407 20.6719 82.8677C24.225 83.4502 27.8223 83.7442 31.4251 83.7331C34.9339 83.722 38.4428 83.4225 41.9075 82.8511C44.9135 82.3574 48.0687 81.8248 50.4282 79.7501C51.1189 79.1398 50.1077 78.1302 49.4225 78.7404C47.168 80.7209 43.847 81.1147 40.9902 81.5641C37.6471 82.0855 34.2653 82.3296 30.8835 82.3074C24.7997 82.2742 17.583 81.8969 12.3059 78.5241C11.5323 78.0193 10.8139 79.2619 11.5875 79.7556Z" fill="#212121"/>
<path d="M11.0792 78.9512C8.56495 85.1533 6.05073 91.3498 3.54203 97.5518C1.28198 103.121 -0.961479 108.841 0.431016 114.932C2.02244 121.866 6.31596 127.625 13.0574 129.993C18.9755 132.074 25.413 132.978 31.6627 133.006C32.58 133.011 32.58 131.58 31.6627 131.574C26.3137 131.552 20.9206 130.836 15.7706 129.355C12.9745 128.551 10.3443 127.602 8.13394 125.677C5.12792 123.065 3.14417 119.486 2.09427 115.67C0.447593 109.69 2.38714 104.198 4.62508 98.6558C7.23324 92.2152 9.84694 85.7746 12.4551 79.334C12.7977 78.4797 11.4218 78.108 11.0792 78.9512Z" fill="#212121"/>
<path d="M49.428 79.3285C51.7323 85.009 54.0365 90.6952 56.3408 96.3758C58.5179 101.751 61.3803 107.648 60.2751 113.606C59.5015 117.794 57.6449 121.861 54.6057 124.879C52.6938 126.776 50.5664 127.896 48.0356 128.751C42.3385 130.681 36.2214 131.541 30.2205 131.569C29.3032 131.574 29.3032 133.006 30.2205 133C35.8402 132.972 41.5372 132.212 46.9304 130.603C49.837 129.738 52.4617 128.684 54.7604 126.687C57.7167 124.119 59.7502 120.618 60.9161 116.901C61.7671 114.189 62.1428 111.437 61.7837 108.602C61.3913 105.529 60.3525 102.6 59.2197 99.732C56.4734 92.781 53.6111 85.8744 50.7984 78.9457C50.4614 78.108 49.0799 78.4742 49.428 79.3285Z" fill="#212121"/>
<path d="M49.0523 62.6917C49.9143 61.6376 51.2792 60.922 52.6109 61.5711C53.8708 62.1868 54.1415 63.7734 54.0973 65.0382C53.9813 68.2779 50.2569 68.6163 48.3118 66.6692C47.6598 66.0146 46.6541 67.0298 47.3062 67.6788C50.1354 70.5136 55.3959 69.5428 55.523 65.0327C55.5782 63.08 54.9317 60.9498 52.9811 60.1787C51.1521 59.4519 49.2512 60.2064 48.0466 61.6765C47.4664 62.381 48.4666 63.4017 49.0523 62.6917Z" fill="#212121"/>
<path d="M50.3011 63.8622C50.2514 65.1714 51.4505 66.0368 52.517 66.5416C53.4342 66.9743 54.9704 67.5568 55.7827 66.6359C56.3905 65.948 55.3848 64.9328 54.777 65.6263C54.5007 65.9425 53.2132 65.3045 52.9811 65.1825C52.4948 64.9273 51.7102 64.5001 51.7323 63.8677C51.7599 62.9413 50.3343 62.9413 50.3011 63.8622Z" fill="#212121"/>
<path d="M52.0086 66.3142C52.5722 69.8812 55.8545 72.4219 59.4629 71.8727C61.198 71.6064 62.8667 70.6301 63.6127 68.988C64.3974 67.2683 63.9332 65.2047 65.0826 63.6292C65.6241 62.8858 64.3863 62.1702 63.8503 62.908C62.1981 65.1714 63.5022 68.6552 60.5791 70.0698C57.3575 71.6231 53.9095 69.2432 53.3845 65.9369C53.2408 65.0271 51.8649 65.4099 52.0086 66.3142Z" fill="#212121"/>
<path d="M54.5062 61.327C54.9096 59.7349 55.6445 58.2925 56.805 57.1165C58.1919 55.7074 59.6231 55.3025 61.5461 55.3746C62.4633 55.4079 62.4633 53.9766 61.5461 53.9433C59.4076 53.8657 57.7333 54.3095 56.1253 55.7906C54.6223 57.172 53.6332 58.9749 53.1358 60.9442C52.9038 61.8429 54.2797 62.2201 54.5062 61.327Z" fill="#212121"/>
<path d="M61.1869 54.1042C61.2035 54.3095 61.2035 54.5203 61.1703 54.7255C61.629 54.7255 62.0876 54.7255 62.5462 54.7255C62.5131 54.5924 62.5186 54.4981 62.5573 54.3649C62.0931 54.3039 61.6234 54.2373 61.1593 54.1763C61.198 54.5979 61.2145 55.0195 61.1924 55.4411C61.6676 55.4411 62.1429 55.4411 62.6181 55.4411C62.6181 54.8975 62.6181 54.3538 62.6181 53.8102C62.1429 53.8102 61.6676 53.8102 61.1924 53.8102C61.1924 54.3317 61.1924 54.8476 61.1924 55.369C61.1924 56.2899 62.6181 56.2899 62.6181 55.369C62.6181 54.8476 62.6181 54.3317 62.6181 53.8102C62.6181 52.8893 61.1924 52.8893 61.1924 53.8102C61.1924 54.3538 61.1924 54.8975 61.1924 55.4411C61.1924 56.3676 62.5794 56.362 62.6181 55.4411C62.6347 55.0195 62.6236 54.5979 62.5849 54.1763C62.5518 53.8213 62.3418 53.5162 61.966 53.4718C61.6124 53.4274 61.2864 53.6327 61.1814 53.9822C61.0764 54.3538 61.0764 54.7311 61.1703 55.1028C61.3416 55.7518 62.4192 55.8184 62.5462 55.1028C62.607 54.7699 62.6402 54.4426 62.6126 54.1042C62.5849 53.7159 62.3031 53.3886 61.8997 53.3886C61.535 53.3886 61.1593 53.7159 61.1869 54.1042Z" fill="#212121"/>
<path d="M63.1154 62.2812C63.8061 62.8526 64.5024 63.4184 65.1931 63.9898C65.4915 64.2339 65.9114 64.2838 66.1988 63.9898C66.4529 63.7346 66.4972 63.2242 66.1988 62.9801C65.508 62.4088 64.8118 61.8429 64.1211 61.2715C63.8227 61.0274 63.4027 60.9775 63.1154 61.2715C62.8667 61.5212 62.817 62.0371 63.1154 62.2812Z" fill="#212121"/>
<path d="M65.4915 62.9468C65.9225 62.5363 66.359 62.1258 66.79 61.7208C67.0718 61.4546 67.0553 60.9775 66.79 60.7112C66.5082 60.4283 66.0606 60.4449 65.7843 60.7112C65.3533 61.1217 64.9168 61.5322 64.4858 61.9372C64.204 62.2035 64.2205 62.6806 64.4858 62.9468C64.7676 63.2298 65.2152 63.2131 65.4915 62.9468Z" fill="#212121"/>
<path d="M64.1542 54.1209C63.458 54.0654 62.7783 53.9378 62.1042 53.7492C61.2201 53.4995 60.8443 54.8809 61.7229 55.1305C62.5186 55.3579 63.3309 55.4911 64.1542 55.5577C65.0715 55.6242 65.066 54.193 64.1542 54.1209Z" fill="#212121"/>
<path d="M48.7594 63.5848C46.1513 64.772 43.2944 65.0216 40.4763 65.2823C37.4371 65.5653 34.3924 65.826 31.3422 65.8926C25.4628 66.0257 19.5005 65.3877 14.1073 62.8914C13.2784 62.5086 12.5546 63.7401 13.3889 64.1285C19.0197 66.7358 25.192 67.4625 31.3422 67.3294C34.6632 67.2572 37.9676 66.9577 41.272 66.6415C44.0957 66.3696 46.8696 66.0091 49.4778 64.8219C50.3122 64.4391 49.5883 63.2076 48.7594 63.5848Z" fill="#212121"/>
<path d="M25.0594 57.8931C22.6888 57.7988 20.3349 57.5381 18.0085 57.0721C16.0026 56.6671 13.284 56.3287 11.8528 54.7255C11.5433 54.3816 11.0405 54.892 11.3499 55.2303C12.7977 56.8502 15.2788 57.2163 17.2957 57.6546C19.8541 58.2038 22.4457 58.5089 25.0594 58.6087C25.518 58.6309 25.518 57.9153 25.0594 57.8931Z" fill="#212121"/>
<path d="M31.4693 58.7419C32.1434 58.7419 32.8176 58.7419 33.4917 58.7419C33.9504 58.7419 33.9504 58.0262 33.4917 58.0262C32.8176 58.0262 32.1434 58.0262 31.4693 58.0262C31.0106 58.0262 31.0106 58.7419 31.4693 58.7419Z" fill="#212121"/>
<path d="M39.7745 58.5145C44.2946 58.1483 48.986 57.6823 52.7932 54.9696C53.1635 54.7034 52.8098 54.0821 52.4341 54.3539C48.7263 56.9945 44.173 57.4438 39.7745 57.8044C39.3214 57.8377 39.3159 58.5533 39.7745 58.5145Z" fill="#212121"/>
<path d="M21.5118 75.9001C18.1356 74.9293 14.6875 73.8753 12.1567 71.3013C11.8362 70.974 11.3278 71.4788 11.6539 71.8061C14.2731 74.4689 17.8317 75.5839 21.324 76.588C21.7605 76.7211 21.9539 76.0277 21.5118 75.9001Z" fill="#212121"/>
<path d="M26.5348 77.6032C27.6786 77.8806 28.8335 77.986 30.0105 77.9083C30.4636 77.8806 30.4691 77.1594 30.0105 77.1927C28.8998 77.2648 27.8112 77.1761 26.7282 76.9153C26.2806 76.8044 26.0872 77.4923 26.5348 77.6032Z" fill="#212121"/>
<path d="M40.0287 77.4867C43.7255 76.4882 47.5935 75.534 50.2348 72.5384C50.5387 72.1944 50.0359 71.6841 49.732 72.0336C47.1735 74.9349 43.4215 75.828 39.8408 76.7988C39.3988 76.9153 39.5867 77.6032 40.0287 77.4867Z" fill="#212121"/>
<path d="M45.7203 67.407C45.781 68.1004 46.0407 68.7162 46.4939 69.2487C46.7922 69.5982 47.2951 69.0879 46.9967 68.7439C46.6707 68.3667 46.4773 67.9063 46.4331 67.4125C46.3889 66.9521 45.676 66.9466 45.7203 67.407Z" fill="#212121"/>
<path d="M19.3292 54.1541C16.395 53.6493 13.4663 53.0446 11.0184 51.2417C10.6482 50.9699 10.2945 51.5912 10.6592 51.8575C13.1513 53.6937 16.1463 54.3261 19.1413 54.842C19.5889 54.9197 19.7823 54.2318 19.3292 54.1541Z" fill="#212121"/>
<path d="M17.9754 55.2747C15.7982 54.9086 13.715 54.2651 11.7146 53.322C11.3002 53.1279 10.941 53.7436 11.3555 53.9378C13.4111 54.9086 15.5495 55.5854 17.7875 55.9626C18.2351 56.0403 18.4285 55.3468 17.9754 55.2747Z" fill="#212121"/>
<path d="M18.6605 58.6864C17.3841 58.8085 16.1518 58.6698 14.9362 58.2704C14.4996 58.1261 14.3118 58.8196 14.7483 58.9582C16.0247 59.3798 17.3288 59.5296 18.6605 59.402C19.1137 59.3577 19.1137 58.642 18.6605 58.6864Z" fill="#212121"/>
<path d="M18.7489 60.4449C17.6991 60.2896 16.6547 60.1398 15.6048 59.9845C15.1572 59.9179 14.9638 60.6114 15.4169 60.6724C16.4668 60.8277 17.5112 60.9775 18.5611 61.1328C19.0087 61.1994 19.2021 60.5115 18.7489 60.4449Z" fill="#212121"/>
<path d="M18.8705 62.6473C17.8538 62.3255 16.837 61.9982 15.8203 61.6765C15.3838 61.5378 15.1959 62.2257 15.6324 62.3644C16.6492 62.6861 17.6659 63.0134 18.6826 63.3352C19.1192 63.4738 19.3071 62.786 18.8705 62.6473Z" fill="#212121"/>
<path d="M18.749 67.7565C17.2515 67.235 15.7485 66.7136 14.251 66.1921C13.8144 66.0423 13.6321 66.7302 14.0631 66.88C15.5606 67.4014 17.0636 67.9229 18.5611 68.4444C18.9921 68.5941 19.18 67.9063 18.749 67.7565Z" fill="#212121"/>
<path d="M19.0916 70.2195C17.3565 69.6038 15.7098 68.8216 14.1294 67.873C13.7371 67.6344 13.3779 68.2557 13.7702 68.4887C15.4003 69.4706 17.1133 70.275 18.9037 70.9074C19.3347 71.0628 19.5226 70.3693 19.0916 70.2195Z" fill="#212121"/>
<path d="M18.3124 72.1168C16.6326 71.5565 15.0798 70.7688 13.621 69.7647C13.2398 69.5039 12.8861 70.1253 13.2619 70.3804C14.7704 71.4178 16.3894 72.2222 18.1245 72.8047C18.5611 72.9489 18.749 72.261 18.3124 72.1168Z" fill="#212121"/>
<path d="M16.5221 76.2718C14.7649 75.5784 13.1182 74.6797 11.5765 73.5813C11.2008 73.315 10.8471 73.9363 11.2173 74.1971C12.8088 75.3288 14.5162 76.2441 16.3287 76.9597C16.7597 77.1317 16.9476 76.4382 16.5221 76.2718Z" fill="#212121"/>
<path d="M17.2957 78.4464C15.4611 77.8473 13.7205 77.0596 12.0572 76.0721C11.6594 75.8391 11.3002 76.4549 11.6981 76.6879C13.4111 77.7031 15.2125 78.513 17.1078 79.1343C17.5443 79.2841 17.7322 78.5906 17.2957 78.4464Z" fill="#212121"/>
<path d="M5.45947 34.9711C6.12256 36.369 6.78013 37.767 7.44322 39.1649C7.64215 39.581 8.25551 39.2204 8.05658 38.8043C7.39349 37.4064 6.73592 36.0084 6.07283 34.6105C5.87943 34.1944 5.26607 34.5606 5.45947 34.9711Z" fill="#212121"/>
<path d="M8.3163 40.6406C9.93535 44.1188 11.8362 47.4417 14.0134 50.5982C14.2731 50.9755 14.892 50.6149 14.6267 50.2377C12.4496 47.0812 10.5487 43.7582 8.92966 40.28C8.74178 39.8639 8.1229 40.2245 8.3163 40.6406Z" fill="#212121"/>
<path d="M24.1642 36.6963C25.2915 36.7352 26.4132 36.774 27.5405 36.8128C27.9991 36.8295 27.9991 36.1139 27.5405 36.0972C26.4132 36.0584 25.2915 36.0196 24.1642 35.9807C23.7056 35.9641 23.7056 36.6797 24.1642 36.6963Z" fill="#212121"/>
<path d="M37.9897 36.7962C44.1233 36.5521 50.2072 35.7144 56.1861 34.2887C56.6337 34.1833 56.4458 33.4899 55.9982 33.6008C50.0856 35.0099 44.068 35.842 37.9952 36.0806C37.5311 36.0972 37.5311 36.8128 37.9897 36.7962Z" fill="#212121"/>
<path d="M48.6544 47.8023C48.0356 48.7177 47.4222 49.633 46.8033 50.5483C46.5436 50.9311 47.1625 51.2917 47.4167 50.9089C48.0356 49.9936 48.6489 49.0782 49.2678 48.1629C49.533 47.7801 48.9142 47.4196 48.6544 47.8023Z" fill="#212121"/>
<path d="M45.875 54.548C45.9855 53.1612 45.3555 51.8797 44.2504 51.0587C43.8802 50.7869 43.5265 51.4082 43.8912 51.6744C44.803 52.3512 45.2506 53.4219 45.1621 54.548C45.129 55.0085 45.8418 55.0029 45.875 54.548Z" fill="#212121"/>
<path d="M39.9237 79.3229C40.3824 80.1162 40.4873 80.9871 40.2332 81.8692C40.1061 82.313 40.7913 82.5016 40.9184 82.0578C41.2223 80.9982 41.0896 79.9109 40.5371 78.9623C40.3105 78.5629 39.6916 78.9235 39.9237 79.3229Z" fill="#212121"/>
<path d="M35.8291 78.2578C36.6967 79.2342 37.0945 80.438 37.0172 81.7361C36.9895 82.1965 37.7024 82.1965 37.73 81.7361C37.8184 80.2493 37.3211 78.8569 36.332 77.7474C36.028 77.409 35.5252 77.9139 35.8291 78.2578Z" fill="#212121"/>
<path d="M13.4166 84.6041C12.9911 85.4251 12.5656 86.2461 12.1457 87.0671C11.9357 87.4777 12.549 87.8382 12.759 87.4277C13.1845 86.6067 13.61 85.7857 14.0299 84.9647C14.2454 84.5597 13.6321 84.1936 13.4166 84.6041Z" fill="#212121"/>
<path d="M11.2781 89.0476C9.37723 93.4855 7.23876 97.8126 4.8682 102.023C4.64165 102.422 5.26053 102.789 5.48156 102.384C7.84659 98.1787 9.98507 93.8517 11.8915 89.4082C12.0738 88.9921 11.4604 88.626 11.2781 89.0476Z" fill="#212121"/>
<path d="M2.25452 107.576C9.38277 99.6654 20.6332 98.8333 30.5465 97.929C35.8844 97.4464 41.2112 97.2467 46.4773 98.4061C49.0799 98.9775 51.6273 99.8152 54.0531 100.914C56.0479 101.818 58.3687 102.855 59.2971 104.974C59.6673 105.818 60.894 105.085 60.5293 104.253C59.1147 101.03 54.8046 99.5489 51.7599 98.445C47.6598 96.9582 43.3221 96.1761 38.9678 96.0873C34.3537 95.993 29.7176 96.5311 25.1312 97.0193C20.7051 97.4908 16.2513 98.1288 12.0407 99.6321C7.95712 101.086 4.16644 103.316 1.24331 106.561C0.629947 107.243 1.63564 108.258 2.25452 107.576Z" fill="#212121"/>
<path d="M1.66327 106.234C0.386814 110.588 6.26071 112.907 9.37725 114.083C13.8531 115.764 18.6495 116.396 23.3906 116.735C32.9834 117.428 43.1618 117.534 52.2572 113.961C55.9485 112.513 62.3307 109.751 60.8056 104.653C60.5404 103.77 59.1645 104.148 59.4297 105.035C60.358 108.147 57.1365 110.061 54.8267 111.248C52.4175 112.486 49.8646 113.401 47.2454 114.067C42.1948 115.354 36.9619 115.692 31.7677 115.653C26.6177 115.614 21.3737 115.381 16.2955 114.46C13.7592 114 11.245 113.34 8.85783 112.347C6.69725 111.448 2.14401 109.662 3.03366 106.611C3.2989 105.729 1.92298 105.346 1.66327 106.234Z" fill="#212121"/>
<path d="M27.4134 103.099C26.3193 102.916 25.181 103.404 24.6339 104.403C24.109 105.363 24.3466 106.833 25.6341 106.894C26.0927 106.916 26.0927 106.2 25.6341 106.178C24.6229 106.134 25.181 104.719 25.5954 104.314C26.0264 103.898 26.6342 103.693 27.2255 103.793C27.6731 103.865 27.8665 103.177 27.4134 103.099Z" fill="#212121"/>
<path d="M36.0501 102.489C36.8238 101.929 37.8681 102.739 38.2991 103.421C38.8904 104.359 37.2658 104.797 36.7022 105.135C36.3099 105.374 36.669 105.989 37.0614 105.751C37.6526 105.39 38.3875 105.224 38.8296 104.658C39.2109 104.175 39.244 103.582 38.9125 103.06C38.2826 102.056 36.8072 101.058 35.6854 101.873C35.3207 102.14 35.6799 102.761 36.0501 102.489Z" fill="#212121"/>
<path d="M20.4509 101.241C18.4008 101.662 16.069 102.483 15.4335 104.736C14.8201 106.921 16.5607 108.364 18.3566 109.168C18.7711 109.357 19.1358 108.735 18.7158 108.552C16.9862 107.781 15.2622 106.317 16.4005 104.264C17.2404 102.744 19.0694 102.262 20.6388 101.94C21.0864 101.84 20.8985 101.152 20.4509 101.241Z" fill="#212121"/>
<path d="M44.1786 100.498C46.5436 101.235 49.1407 102.167 49.8867 104.83C50.7542 107.926 47.1017 108.591 44.9466 109.379C44.5212 109.534 44.7035 110.228 45.1345 110.067C47.3835 109.246 51.1521 108.491 50.7211 105.329C50.268 102.001 47.1846 100.686 44.3609 99.8041C43.9299 99.6709 43.742 100.359 44.1786 100.498Z" fill="#212121"/>
<path d="M54.8986 104.12C55.3572 105.113 55.0146 106.328 54.1139 106.944C53.7382 107.199 54.0918 107.82 54.4731 107.559C55.7109 106.711 56.1419 105.119 55.5119 103.759C55.3241 103.343 54.7107 103.709 54.8986 104.12Z" fill="#212121"/>
<path d="M11.7754 103.721C9.50434 104.935 6.24413 109.052 9.34409 111.049C13.1624 113.506 17.9975 114.544 22.4789 114.488C22.9375 114.483 22.9375 113.767 22.4789 113.773C18.9976 113.817 15.5495 113.173 12.3446 111.781C11.5931 111.454 10.8471 111.099 10.1343 110.688C9.03465 110.05 8.58153 109.446 8.95176 108.12C9.41593 106.455 10.6371 105.141 12.1291 104.342C12.5435 104.126 12.1788 103.504 11.7754 103.721Z" fill="#212121"/>
<path d="M25.1202 100.597C29.0214 99.8429 33.011 99.1384 36.9122 100.303C37.3542 100.436 37.5421 99.7431 37.1 99.6155C33.0828 98.4117 28.9551 99.1273 24.9323 99.9095C24.4792 99.9982 24.6671 100.686 25.1202 100.597Z" fill="#212121"/>
<path d="M25.8496 110.355C31.4195 110.594 36.8956 109.579 42.029 107.404C42.449 107.227 42.0898 106.611 41.6699 106.788C36.658 108.919 31.2869 109.873 25.8496 109.645C25.3909 109.623 25.3909 110.339 25.8496 110.355Z" fill="#212121"/>
<path d="M51.4947 109.545C45.4219 112.125 38.8462 112.946 32.3479 113.712C31.9003 113.767 31.8948 114.483 32.3479 114.427C38.9843 113.645 45.6539 112.796 51.8539 110.161C52.2793 109.989 51.9146 109.368 51.4947 109.545Z" fill="#212121"/>
<path d="M6.39333 116.596C4.58088 115.975 3.00603 114.943 1.6909 113.551C1.37593 113.218 0.873087 113.723 1.18806 114.055C2.58608 115.542 4.28249 116.624 6.20546 117.29C6.63647 117.434 6.82434 116.746 6.39333 116.596Z" fill="#212121"/>
<path d="M10.4548 118.399C12.5048 118.765 14.5604 118.976 16.6381 119.032C17.0967 119.043 17.0967 118.327 16.6381 118.316C14.6212 118.266 12.6264 118.066 10.6426 117.711C10.1951 117.628 10.0017 118.321 10.4548 118.399Z" fill="#212121"/>
<path d="M16.7265 127.796C22.9872 129.655 29.5463 130.326 36.0502 129.688C39.1777 129.383 42.2777 128.806 45.339 128.107C48.5992 127.364 52.086 126.72 55.197 125.461C55.6169 125.289 55.4346 124.601 55.0091 124.773C52.1467 125.933 48.9528 126.526 45.9579 127.231C42.6921 127.996 39.3932 128.645 36.0557 128.973C29.6126 129.605 23.1254 128.95 16.9199 127.109C16.4779 126.975 16.29 127.669 16.7265 127.796Z" fill="#212121"/>
<path d="M47.8587 118.072C51.4615 117.162 55.0643 116.252 58.6671 115.342C59.1092 115.231 58.9213 114.538 58.4793 114.655C54.8765 115.564 51.2737 116.474 47.6709 117.384C47.2288 117.495 47.4167 118.188 47.8587 118.072Z" fill="#212121"/>
<path d="M8.71414 124.54C9.84693 126.027 11.0571 127.447 12.3501 128.801C12.6706 129.133 13.1734 128.629 12.8529 128.296C11.6041 126.987 10.4271 125.616 9.33303 124.18C9.05122 123.813 8.43233 124.174 8.71414 124.54Z" fill="#212121"/>
<path d="M47.1127 17.8018C50.2238 19.7711 48.9363 24.1314 47.1735 26.5889C46.2342 27.9036 44.8748 28.9688 43.2723 29.2905C41.4599 29.6566 39.3656 28.8966 38.7578 27.0272C38.4704 26.1562 37.0945 26.5279 37.3819 27.4099C38.9512 32.1863 45.0572 31.2654 47.7703 28.1366C50.4779 25.0079 51.9865 19.1942 47.8366 16.5702C47.0575 16.0765 46.3391 17.3136 47.1127 17.8018Z" fill="#212121"/>
<path d="M47.9416 17.014C48.1074 15.2222 46.4386 14.268 44.8417 14.44C43.0845 14.6286 41.4046 15.7436 40.2 16.9863C37.509 19.7766 36.1165 24.1979 37.5753 27.9036C37.9068 28.7524 39.2883 28.3807 38.9512 27.5209C37.951 24.9635 38.4649 22.1842 39.8187 19.8598C40.4376 18.7947 41.2389 17.8406 42.228 17.1028C43.0568 16.487 46.737 14.6619 46.516 17.014C46.4275 17.9349 47.8587 17.9293 47.9416 17.014Z" fill="#212121"/>
<path d="M40.6642 20.5477C41.0455 19.6712 41.5262 18.8669 42.0788 18.0847C42.7032 17.1971 43.4215 15.8712 44.6317 15.8435C45.0903 15.8324 45.0903 15.1168 44.6317 15.1279C43.5542 15.1501 42.88 15.8213 42.2556 16.6368C41.4046 17.7463 40.6089 18.9001 40.0508 20.1871C39.8685 20.6032 40.4818 20.9693 40.6642 20.5477Z" fill="#212121"/>
<path d="M39.5756 21.7904C39.4651 22.395 39.4209 22.9942 39.4651 23.6099C39.4982 24.0648 40.2111 24.0704 40.1779 23.6099C40.1392 23.0607 40.1669 22.5226 40.2663 21.9845C40.3437 21.5296 39.6585 21.3355 39.5756 21.7904Z" fill="#212121"/>
<path d="M39.6751 25.5293C39.8077 26.5057 40.4929 27.2934 41.3991 27.6263C41.8301 27.7871 42.018 27.0937 41.587 26.9384C40.8963 26.6832 40.4542 26.0563 40.3603 25.3407C40.305 24.8858 39.6143 25.08 39.6751 25.5293Z" fill="#212121"/>
<path d="M41.9683 28.5194C42.4269 29.2128 43.0347 29.8452 43.9244 29.8508C44.383 29.8508 44.383 29.1352 43.9244 29.1352C43.3055 29.1352 42.8966 28.6359 42.5816 28.1588C42.333 27.776 41.7141 28.1366 41.9683 28.5194Z" fill="#212121"/>
<path d="M45.444 22.0844C46.3557 21.5574 47.5382 21.0858 48.0687 20.1095C48.5771 19.172 48.4389 18.0847 47.82 17.2359C47.5493 16.8698 46.9304 17.2248 47.2067 17.5965C47.8145 18.4286 47.8587 19.5104 47.063 20.2537C46.516 20.7641 45.7313 21.0969 45.0848 21.4686C44.6869 21.696 45.0461 22.3174 45.444 22.0844Z" fill="#212121"/>
<path d="M44.1233 22.4782C42.9408 23.8485 42.5595 25.4628 42.0898 27.1769C41.9683 27.6207 42.6535 27.8093 42.775 27.3656C43.2116 25.7956 43.5321 24.2534 44.6262 22.9831C44.9301 22.6391 44.4272 22.1288 44.1233 22.4782Z" fill="#212121"/>
<path d="M45.5987 25.3407C46.1734 25.8344 46.6265 26.4447 46.9083 27.1547C47.0741 27.5763 47.7648 27.3933 47.5935 26.9661C47.2675 26.1396 46.7757 25.4184 46.1015 24.8415C45.7534 24.5308 45.2506 25.0356 45.5987 25.3407Z" fill="#212121"/>
<path d="M47.3393 24.9691C47.5051 25.2187 47.6708 25.4739 47.8366 25.7235C47.9416 25.8844 48.1516 25.9509 48.3229 25.8511C48.4831 25.7568 48.555 25.5238 48.45 25.3629C48.2842 25.1133 48.1184 24.8581 47.9527 24.6085C47.8477 24.4476 47.6377 24.381 47.4664 24.4809C47.3061 24.5752 47.2288 24.8082 47.3393 24.9691Z" fill="#212121"/>
<path d="M40.0232 27.593C39.3214 27.532 38.7136 27.1936 38.2549 26.661C37.9566 26.3115 37.4537 26.8219 37.7521 27.1658C38.3378 27.8426 39.1391 28.2309 40.0287 28.3086C40.4763 28.3474 40.4763 27.6318 40.0232 27.593Z" fill="#212121"/>
<path d="M46.2563 18.7892C45.9634 18.4342 45.6761 18.0791 45.3832 17.7241C45.2616 17.5743 45.0074 17.5965 44.8803 17.7241C44.7312 17.8739 44.7588 18.0791 44.8803 18.2289C45.1732 18.5839 45.4606 18.939 45.7534 19.294C45.875 19.4438 46.1292 19.4216 46.2563 19.294C46.4055 19.1442 46.3834 18.939 46.2563 18.7892Z" fill="#212121"/>
<path d="M38.5975 23.1273C38.1113 23.4269 37.6692 23.7875 37.2879 24.2091C36.9785 24.5475 37.4813 25.0578 37.7908 24.7139C38.1334 24.3367 38.5202 24.0149 38.9567 23.7431C39.349 23.5045 38.9899 22.8888 38.5975 23.1273Z" fill="#212121"/>
<path d="M38.581 24.2645C38.1113 24.5974 37.7134 24.9912 37.3708 25.4572C37.2548 25.6125 37.3432 25.8566 37.4979 25.9454C37.6803 26.0508 37.8737 25.9731 37.9842 25.8178C38.2494 25.4572 38.5754 25.1355 38.9401 24.8803C39.3104 24.6195 38.9567 24.0038 38.581 24.2645Z" fill="#212121"/>
<path d="M38.6362 25.5959C38.2384 25.9509 37.8405 26.3115 37.4371 26.6666C37.0945 26.9717 37.5974 27.4765 37.94 27.1714C38.3378 26.8163 38.7357 26.4558 39.1391 26.1007C39.4817 25.7956 38.9788 25.2908 38.6362 25.5959Z" fill="#212121"/>
<path d="M36.564 3.28408C39.7027 5.29226 38.161 9.8689 36.1772 12.16C34.3648 14.2569 29.8005 15.5661 28.6456 12.0435C28.3583 11.1725 26.9824 11.5442 27.2697 12.4263C28.6898 16.7533 34.199 16.254 36.879 13.508C39.7524 10.5679 41.388 4.67649 37.2824 2.05255C36.5088 1.55328 35.7904 2.79036 36.564 3.28408Z" fill="#212121"/>
<path d="M37.404 2.50189C37.5642 0.782186 35.9562 -0.149785 34.42 0.0166381C32.7513 0.194156 31.1543 1.24262 29.9994 2.41868C27.4023 5.07591 26.0651 9.33635 27.4576 12.8923C27.7891 13.741 29.1706 13.3693 28.8335 12.5095C27.8886 10.1019 28.3583 7.4835 29.6237 5.28116C30.2481 4.18832 31.0825 3.20087 32.1158 2.4797C32.8839 1.94715 36.1772 0.349485 35.9783 2.49635C35.8899 3.42277 37.3155 3.41722 37.404 2.50189Z" fill="#212121"/>
<path d="M30.447 5.8803C30.8117 5.04264 31.2703 4.27709 31.7953 3.52819C32.3866 2.69052 33.0717 1.42571 34.2156 1.39797C34.6742 1.38687 34.6742 0.671253 34.2156 0.682348C33.1823 0.704538 32.5357 1.34249 31.9334 2.13023C31.1212 3.18979 30.3641 4.28819 29.8281 5.51417C29.6513 5.93578 30.2647 6.30191 30.447 5.8803Z" fill="#212121"/>
<path d="M29.375 7.05079C29.27 7.62773 29.2258 8.20466 29.27 8.78714C29.3032 9.24203 30.016 9.24758 29.9829 8.78714C29.9497 8.26568 29.9718 7.75532 30.0657 7.23941C30.1431 6.79006 29.4579 6.5959 29.375 7.05079Z" fill="#212121"/>
<path d="M29.4745 10.6289C29.6016 11.5664 30.2591 12.3209 31.1322 12.6426C31.5632 12.8035 31.7511 12.1101 31.3201 11.9547C30.668 11.7162 30.2536 11.1226 30.1597 10.4403C30.0989 9.97985 29.4137 10.174 29.4745 10.6289Z" fill="#212121"/>
<path d="M31.6571 13.4803C32.0992 14.1515 32.6849 14.7506 33.5359 14.7562C33.9945 14.7562 33.9945 14.0406 33.5359 14.0406C32.9502 14.0406 32.5689 13.569 32.2705 13.1197C32.0218 12.7369 31.403 13.0975 31.6571 13.4803Z" fill="#212121"/>
<path d="M34.9947 7.35037C35.8678 6.84555 36.9951 6.39621 37.5034 5.46423C37.9952 4.56555 37.8626 3.51708 37.2658 2.70715C36.9951 2.34102 36.3762 2.69606 36.6525 3.06774C37.2271 3.85548 37.2713 4.87621 36.5198 5.58073C36.0004 6.06891 35.2489 6.37956 34.6355 6.7346C34.2377 6.96204 34.5969 7.58336 34.9947 7.35037Z" fill="#212121"/>
<path d="M33.7183 7.69984C32.5855 9.00903 32.2263 10.5512 31.7732 12.1877C31.6516 12.6315 32.3368 12.8201 32.4584 12.3763C32.8728 10.8785 33.1823 9.414 34.2211 8.20466C34.5195 7.86071 34.0222 7.35035 33.7183 7.69984Z" fill="#212121"/>
<path d="M35.1218 10.4514C35.6689 10.9229 36.0999 11.4998 36.3651 12.1711C36.5309 12.5927 37.2216 12.4096 37.0503 11.9825C36.7353 11.1947 36.2656 10.5013 35.6247 9.94656C35.2821 9.647 34.7737 10.1518 35.1218 10.4514Z" fill="#212121"/>
<path d="M36.7795 10.0963C36.9398 10.3349 37.0945 10.5734 37.2548 10.8175C37.3597 10.9784 37.5697 11.045 37.741 10.9451C37.9013 10.8508 37.9786 10.6178 37.8681 10.4569C37.7079 10.2184 37.5531 9.97985 37.3929 9.73576C37.2879 9.57488 37.0779 9.50831 36.9066 9.60817C36.7464 9.70247 36.6745 9.93547 36.7795 10.0963Z" fill="#212121"/>
<path d="M29.8171 12.5705C29.154 12.5095 28.5738 12.1877 28.1428 11.6885C27.8444 11.339 27.3415 11.8493 27.6399 12.1933C28.2035 12.8423 28.9716 13.214 29.8226 13.2861C30.2757 13.325 30.2702 12.6093 29.8171 12.5705Z" fill="#212121"/>
<path d="M35.7739 4.18278C35.4976 3.84438 35.2213 3.50599 34.945 3.1676C34.8234 3.01782 34.5692 3.04 34.4421 3.1676C34.293 3.31738 34.3206 3.52263 34.4421 3.67241C34.7184 4.01081 34.9947 4.3492 35.271 4.6876C35.3926 4.83738 35.6468 4.81519 35.7739 4.6876C35.9231 4.53781 35.9009 4.33256 35.7739 4.18278Z" fill="#212121"/>
<path d="M28.4522 8.3156C27.988 8.59852 27.5681 8.94801 27.1979 9.34743C26.8884 9.68582 27.3913 10.1962 27.7007 9.85225C28.0267 9.49166 28.397 9.18655 28.8114 8.93137C29.2037 8.69283 28.8445 8.07706 28.4522 8.3156Z" fill="#212121"/>
<path d="M28.4356 9.40292C27.9825 9.71912 27.6012 10.1019 27.2752 10.5457C27.1592 10.701 27.2476 10.9451 27.4023 11.0339C27.5847 11.1393 27.7781 11.0616 27.8886 10.9063C28.1372 10.5623 28.4467 10.2628 28.7948 10.0187C28.9495 9.90774 29.0269 9.70803 28.9219 9.53051C28.828 9.37518 28.5903 9.29197 28.4356 9.40292Z" fill="#212121"/>
<path d="M28.4854 10.6733C28.1041 11.0117 27.7228 11.3556 27.3415 11.694C26.9989 11.9991 27.5018 12.5039 27.8444 12.1988C28.2256 11.8604 28.6069 11.5165 28.9882 11.1781C29.3363 10.8674 28.828 10.3626 28.4854 10.6733Z" fill="#212121"/>
<path d="M13.0022 14.8339C15.544 11.9159 20.0917 14.2569 22.0202 16.6645C23.8437 18.9445 25.1312 23.4934 22.5838 25.6902C21.8876 26.2893 22.8988 27.299 23.5895 26.6998C25.3523 25.1743 25.402 23.2438 25.2694 21.0304C25.1423 18.9112 24.2913 17.1582 22.943 15.5439C20.484 12.5982 15.008 10.3571 11.9854 13.8187C11.3886 14.5121 12.3943 15.5273 13.0022 14.8339Z" fill="#212121"/>
<path d="M12.107 13.8575C7.10061 15.6438 10.7918 21.7903 12.9082 24.3533C14.3228 26.0619 16.2071 27.6429 18.4063 28.1755C20.5227 28.6858 22.4954 27.7594 24.015 26.3171C24.6836 25.6846 23.6724 24.675 23.0093 25.3074C21.7273 26.5223 20.1525 27.2268 18.3953 26.6832C16.8812 26.2172 15.5772 25.1743 14.5162 24.026C13.4608 22.8943 12.5214 21.5629 11.7975 20.1871C11.0073 18.6838 10.3332 16.0044 12.4827 15.2388C13.3447 14.9337 12.98 13.5524 12.107 13.8575Z" fill="#212121"/>
<path d="M14.1681 14.9448C14.5715 14.4733 14.7317 13.9074 14.8643 13.3139C14.9638 12.8645 14.2786 12.6759 14.1791 13.1252C14.0797 13.5857 13.9802 14.0739 13.6652 14.44C13.3668 14.7895 13.8697 15.2943 14.1681 14.9448Z" fill="#212121"/>
<path d="M12.0351 15.3942C12.98 16.0931 13.9636 16.5425 14.6046 17.5909C15.0743 18.3565 15.4335 19.172 15.964 19.9042C16.8315 21.0914 17.898 21.979 19.2573 22.5226C19.6828 22.6946 19.8707 22.0012 19.4452 21.8347C17.5057 21.0581 16.3839 19.416 15.428 17.6409C14.6433 16.1874 13.6873 15.7381 12.3943 14.7839C12.0241 14.501 11.6704 15.1223 12.0351 15.3942Z" fill="#212121"/>
<path d="M15.4943 19.0388C16.2623 20.2315 17.4559 20.703 18.6937 21.2855C20.8874 22.3173 22.2412 23.6487 22.2799 26.2061C22.2854 26.6665 22.9983 26.6665 22.9927 26.2061C22.9651 24.4087 22.5286 23.0052 21.0863 21.8569C19.5778 20.6531 17.1907 20.3646 16.1076 18.6782C15.859 18.2899 15.2456 18.6505 15.4943 19.0388Z" fill="#212121"/>
<path d="M23.164 23.3325C23.6448 23.3436 24.12 23.2937 24.5897 23.1828C25.0373 23.0829 24.8494 22.3895 24.4018 22.4949C23.9929 22.5892 23.584 22.628 23.1696 22.6169C22.7054 22.6058 22.7054 23.3214 23.164 23.3325Z" fill="#212121"/>
<path d="M19.2242 15.6826C20.0917 16.193 20.8487 16.8476 21.4621 17.652C21.7384 18.0126 22.3573 17.6575 22.0755 17.2914C21.3903 16.3872 20.5614 15.6382 19.5833 15.0669C19.191 14.8339 18.8318 15.4496 19.2242 15.6826Z" fill="#212121"/>
<path d="M22.0202 18.6727C22.1141 18.8391 22.197 19.0055 22.2689 19.1831C22.3241 19.3273 22.4291 19.527 22.4181 19.6768C22.3794 20.1372 23.0922 20.1317 23.1309 19.6768C23.1475 19.4493 23.037 19.1997 22.9541 18.9945C22.8601 18.7615 22.7551 18.534 22.6336 18.3177C22.4125 17.9127 21.7937 18.2733 22.0202 18.6727Z" fill="#212121"/>
<path d="M15.1738 24.0981C15.5772 24.5086 16.0247 24.8636 16.5055 25.1743C16.8923 25.4239 17.2515 24.8026 16.8647 24.5585C16.4337 24.2812 16.0358 23.9594 15.6766 23.5933C15.3561 23.266 14.8478 23.7708 15.1738 24.0981Z" fill="#212121"/>
<path d="M11.3831 16.2762C10.7918 17.1638 10.3608 18.129 10.0901 19.1664C9.97401 19.6102 10.6592 19.8044 10.7752 19.355C11.0294 18.3731 11.4328 17.48 11.9964 16.6368C12.2562 16.254 11.6373 15.8934 11.3831 16.2762Z" fill="#212121"/>
<path d="M11.8417 17.5244C11.2671 18.2622 10.8195 19.0555 10.4824 19.932C10.3166 20.3647 11.0073 20.5477 11.1676 20.1206C11.4549 19.3661 11.8473 18.6616 12.3446 18.0292C12.6209 17.6742 12.1235 17.1638 11.8417 17.5244Z" fill="#212121"/>
<path d="M12.5546 19.2163C11.9744 19.9819 11.5765 20.8528 11.372 21.7959C11.2781 22.2453 11.9633 22.4394 12.0572 21.9845C12.2451 21.0969 12.6153 20.2981 13.1679 19.5769C13.4442 19.2163 12.8253 18.8558 12.5546 19.2163Z" fill="#212121"/>
<path d="M19.5005 25.5404C19.1358 26.2505 18.6384 26.8663 18.003 27.3489C17.6383 27.6207 17.9974 28.242 18.3621 27.9647C19.0971 27.4099 19.6939 26.722 20.1193 25.901C20.3293 25.496 19.7104 25.1355 19.5005 25.5404Z" fill="#212121"/>
<path d="M20.5393 26.1673C20.3625 26.7054 20.1028 27.2102 19.7546 27.654C19.4728 28.0146 19.9757 28.5194 20.2575 28.1588C20.683 27.6096 21.009 27.0216 21.2245 26.3559C21.3737 25.9176 20.683 25.729 20.5393 26.1673Z" fill="#212121"/>
</g>
<defs>
<clipPath id="clip0_2193_193">
<rect width="67" height="133" fill="white"/>
</clipPath>
</defs>
</svg>
